<svg xmlns="http://www.w3.org/2000/svg" viewBox="0 0 64 64">
  <rect width="64" height="64" rx="14" fill="#010C1A"/>
  <path d="M32 10 L52 18 L55 38 L45 52 L32 58 L19 52 L9 38 L12 18 Z" 
    stroke="#2FA7BC" stroke-width="1.5" fill="none" opacity="0.5"/>
  <circle cx="32" cy="20" r="3" fill="#2FA7BC"/>
  <circle cx="22" cy="28" r="2.5" fill="#2FA7BC" opacity="0.7"/>
  <circle cx="42" cy="28" r="2.5" fill="#2FA7BC" opacity="0.7"/>
  <circle cx="32" cy="36" r="3" fill="#2FA7BC"/>
  <circle cx="26" cy="46" r="2.5" fill="#2FA7BC" opacity="0.5"/>
  <circle cx="38" cy="46" r="2.5" fill="#2FA7BC" opacity="0.5"/>
  <line x1="32" y1="20" x2="22" y2="28" stroke="#2FA7BC" stroke-width="1" opacity="0.4"/>
  <line x1="32" y1="20" x2="42" y2="28" stroke="#2FA7BC" stroke-width="1" opacity="0.4"/>
  <line x1="22" y1="28" x2="32" y2="36" stroke="#2FA7BC" stroke-width="1" opacity="0.5"/>
  <line x1="42" y1="28" x2="32" y2="36" stroke="#2FA7BC" stroke-width="1" opacity="0.5"/>
  <line x1="32" y1="36" x2="26" y2="46" stroke="#2FA7BC" stroke-width="1" opacity="0.3"/>
  <line x1="32" y1="36" x2="38" y2="46" stroke="#2FA7BC" stroke-width="1" opacity="0.3"/>
</svg>
